<svg width="420" height="420" viewBox="0 0 420 420" fill="none" xmlns="http://www.w3.org/2000/svg">
<rect width="420" height="420" rx="40" fill="black"/>
<rect x="45" y="46.74" width="30" height="326.52" rx="5" fill="white"/>
<rect x="95" y="80" width="30" height="260" rx="5" fill="white"/>
<path d="M145 133.55C145 130.703 145 129.279 145.563 128.195C146.037 127.282 146.782 126.537 147.695 126.063C148.779 125.5 150.203 125.5 153.05 125.5H166.95C169.797 125.5 171.221 125.5 172.305 126.063C173.218 126.537 173.963 127.282 174.437 128.195C175 129.279 175 130.703 175 133.55V286.45C175 289.297 175 290.721 174.437 291.805C173.963 292.718 173.218 293.463 172.305 293.937C171.221 294.5 169.797 294.5 166.95 294.5H153.05C150.203 294.5 148.779 294.5 147.695 293.937C146.782 293.463 146.037 292.718 145.563 291.805C145 290.721 145 289.297 145 286.45V133.55Z" fill="white"/>
<path d="M195 166.55C195 163.703 195 162.279 195.563 161.195C196.037 160.282 196.782 159.537 197.695 159.063C198.779 158.5 200.203 158.5 203.05 158.5H216.95C219.797 158.5 221.221 158.5 222.305 159.063C223.218 159.537 223.963 160.282 224.437 161.195C225 162.279 225 163.703 225 166.55V253.45C225 256.297 225 257.721 224.437 258.805C223.963 259.718 223.218 260.463 222.305 260.937C221.221 261.5 219.797 261.5 216.95 261.5H203.05C200.203 261.5 198.779 261.5 197.695 260.937C196.782 260.463 196.037 259.718 195.563 258.805C195 257.721 195 256.297 195 253.45V166.55Z" fill="white"/>
<rect x="245" y="125.5" width="30" height="169" rx="5" fill="white"/>
<rect x="295" y="80" width="30" height="260" rx="5" fill="white"/>
<rect x="345" y="46.74" width="30" height="326.52" rx="5" fill="white"/>
</svg>
